<svg xmlns="http://www.w3.org/2000/svg" version="1.1" xmlns:xlink="http://www.w3.org/1999/xlink" xmlns:svgjs="http://svgjs.dev/svgjs" width="2048" height="1024" preserveAspectRatio="none" viewBox="0 0 2048 1024"><g mask="url(&quot;#SvgjsMask1107&quot;)" fill="none"><path d="M 0,42 C 82,134.8 246,474.2 410,506 C 574,537.8 656,247.4 820,201 C 984,154.6 1066,268.8 1230,274 C 1394,279.2 1476.4,206.6 1640,227 C 1803.6,247.4 1966.4,346.2 2048,376L2048 1024L0 1024z" fill="rgba(245, 158, 11, 1)"></path><path d="M 0,578 C 136.6,633.4 409.8,861.8 683,855 C 956.2,848.2 1093,518.6 1366,544 C 1639,569.4 1911.6,894.4 2048,982L2048 1024L0 1024z" fill="rgba(251, 191, 36, 1)"></path></g><defs><mask id="SvgjsMask1107"><rect width="2048" height="1024" fill="#ffffff"></rect></mask></defs></svg>